<svg data-v-423bf9ae="" xmlns="http://www.w3.org/2000/svg" viewBox="0 0 452.6668099164674 60" class="font"><!----><!----><!----><g data-v-423bf9ae="" id="1ada3e64-2180-482c-bb2e-eb04730e1577" fill="black" transform="matrix(4.224608525153769,0,0,4.224608525153769,-0.2534706803118638,-11.395881694731862)"><path d="M4.83 3.37L4.83 3.37Q4.83 3.29 4.89 3.18L4.89 3.18L4.89 3.18Q4.94 3.07 5.14 3.07L5.14 3.07L5.14 3.07Q5.43 3.07 5.57 3.12L5.57 3.12L5.57 3.12Q5.71 3.16 5.71 3.37L5.71 3.37L5.71 3.37Q5.85 3.51 5.85 3.74L5.85 3.74L5.85 3.74Q5.85 3.91 5.77 4.21L5.77 4.21L5.77 4.21Q5.71 4.47 5.71 4.54L5.71 4.54L5.71 4.54Q5.67 4.63 5.51 5.01L5.51 5.01L5.51 5.01Q5.35 5.38 5.16 5.59L5.16 5.59L5.16 5.59Q4.97 5.80 4.76 5.80L4.76 5.80L4.76 5.80Q4.63 5.80 4.52 5.74L4.52 5.74L4.52 5.74Q4.40 5.61 4.40 5.36L4.40 5.36L4.40 5.36Q4.40 5.24 4.45 4.87L4.45 4.87L4.45 4.87Q4.52 4.38 4.52 4.26L4.52 4.26L4.52 4.26Q4.30 4.02 3.88 3.84L3.88 3.84L3.88 3.84Q3.46 3.65 3.04 3.65L3.04 3.65L3.04 3.65Q2.81 4.09 2.81 5.00L2.81 5.00L2.81 5.00Q2.81 5.91 3.04 6.36L3.04 6.36L3.04 6.36Q3.22 6.73 3.55 7.02L3.55 7.02L3.55 7.02Q3.88 7.31 4.45 7.70L4.45 7.70L4.45 7.70Q5.08 8.13 5.47 8.48L5.47 8.48L5.47 8.48Q5.87 8.82 6.15 9.31L6.15 9.31L6.15 9.31Q6.50 9.91 6.72 10.37L6.72 10.37L6.72 10.37Q6.94 10.81 7.06 11.33L7.06 11.33L7.06 11.33Q7.17 11.84 7.17 12.33L7.17 12.33L7.17 12.33Q7.17 13.17 7.04 13.76L7.04 13.76L7.04 13.76Q6.90 14.34 6.61 14.99L6.61 14.99L6.61 14.99Q6.27 15.72 5.71 16.14L5.71 16.14L5.71 16.14Q5.15 16.55 4.24 16.77L4.24 16.77L3.04 16.77L3.04 16.77Q2.66 16.77 2.14 16.37L2.14 16.37L2.14 16.37Q1.61 15.96 1.26 15.58L1.26 15.58L1.26 15.58Q0.83 14.77 0.83 13.87L0.83 13.87L0.83 13.87Q0.83 13.44 0.95 12.91L0.95 12.91L0.95 12.91Q0.80 12.91 0.64 13.06L0.64 13.06L0.64 13.06Q0.52 13.22 0.36 13.22L0.36 13.22L0.36 13.22Q0.15 13.01 0.10 12.80L0.10 12.80L0.10 12.80Q0.06 12.60 0.06 12.32L0.06 12.32L0.06 12.32Q0.53 12.15 1.16 12.05L1.16 12.05L1.16 12.05Q1.47 12.00 1.81 11.91L1.81 11.91L1.81 11.91Q2.14 11.83 2.45 11.70L2.45 11.70L2.45 11.70Q2.77 11.70 2.97 11.91L2.97 11.91L2.97 11.91Q3.16 12.12 3.16 12.43L3.16 12.43L3.16 12.43Q3.16 12.67 3.04 12.91L3.04 12.91L3.04 12.91Q2.74 12.91 2.55 12.96L2.55 12.96L2.55 12.96Q2.35 13.01 2.14 13.22L2.14 13.22L2.14 13.22Q1.83 13.52 1.83 14.17L1.83 14.17L1.83 14.17Q1.83 14.73 2.08 15.24L2.08 15.24L2.08 15.24Q2.32 15.75 2.73 15.89L2.73 15.89L2.73 15.89Q2.91 15.89 3.04 15.74L3.04 15.74L3.04 15.74Q3.05 15.72 3.14 15.65L3.14 15.65L3.14 15.65Q3.22 15.58 3.35 15.58L3.35 15.58L3.35 15.58Q4.33 15.09 4.84 14.05L4.84 14.05L4.84 14.05Q5.35 13.01 5.35 11.68L5.35 11.68L5.35 11.68Q5.35 10.81 5.14 9.93L5.14 9.93L5.14 9.93Q4.90 9.48 4.64 9.22L4.64 9.22L4.64 9.22Q4.38 8.96 3.93 8.72L3.93 8.72L3.93 8.72Q3.53 8.53 3.28 8.32L3.28 8.32L3.28 8.32Q3.02 8.12 2.73 7.83L2.73 7.83L2.73 7.83Q2.59 7.69 2.35 7.55L2.35 7.55L2.35 7.55Q1.99 7.34 1.74 7.07L1.74 7.07L1.74 7.07Q1.65 6.97 1.33 6.65L1.33 6.65L1.33 6.65Q1.01 6.33 0.83 6.03L0.83 6.03L0.83 6.03Q0.64 5.73 0.64 5.46L0.64 5.46L0.64 5.46Q0.57 5.25 0.57 4.97L0.57 4.97L0.57 4.97Q0.57 4.03 1.54 3.07L1.54 3.07L1.54 3.07Q1.65 3.07 1.78 3.02L1.78 3.02L1.78 3.02Q1.90 2.97 1.95 2.95L1.95 2.95L1.95 2.95Q2.34 2.76 2.73 2.76L2.73 2.76L2.73 2.76Q3.00 2.76 3.18 2.79L3.18 2.79L3.18 2.79Q3.36 2.83 3.63 2.91L3.63 2.91L4.24 3.07L4.24 3.07Q4.27 3.09 4.35 3.16L4.35 3.16L4.35 3.16Q4.44 3.23 4.56 3.30L4.56 3.30L4.56 3.30Q4.69 3.37 4.83 3.37L4.83 3.37ZM13.48 5.08L13.48 5.08Q13.41 4.98 13.36 4.82L13.36 4.82L13.36 4.82Q13.34 4.72 13.34 4.51L13.34 4.51L13.34 4.51Q13.34 4.28 13.31 4.16L13.31 4.16L13.31 4.16Q13.29 4.03 13.19 3.95L13.19 3.95L13.19 3.95Q12.91 3.79 12.61 3.65L12.61 3.65L12.61 3.65Q11.97 3.65 11.49 3.70L11.49 3.70L11.49 3.70Q11.00 3.75 10.63 3.95L10.63 3.95L10.63 3.95Q10.47 4.09 10.42 4.30L10.42 4.30L10.42 4.30Q10.37 4.52 10.37 4.90L10.37 4.90L10.37 4.90Q10.37 5.56 10.35 6.26L10.35 6.26L10.33 7.07L10.33 7.07Q10.33 7.28 10.40 7.91L10.40 7.91L10.40 7.91Q10.46 8.33 10.46 8.50L10.46 8.50L10.46 8.50Q10.46 8.83 10.33 9.09L10.33 9.09L10.33 9.09Q10.53 9.25 10.97 9.30L10.97 9.30L10.97 9.30Q11.41 9.35 12.04 9.35L12.04 9.35L12.04 9.35Q12.04 9.00 12.09 8.76L12.09 8.76L12.09 8.76Q12.14 8.51 12.33 8.51L12.33 8.51L12.33 8.51Q12.54 8.51 12.61 8.55L12.61 8.55L12.61 8.55Q12.68 8.58 12.91 8.79L12.91 8.79L12.91 8.79Q12.84 8.93 12.84 9.10L12.84 9.10L12.84 9.10Q12.82 9.17 12.82 9.34L12.82 9.34L12.82 9.34Q12.82 9.63 12.87 9.95L12.87 9.95L12.87 9.95Q12.89 10.35 12.89 10.51L12.89 10.51L12.89 10.51Q12.89 10.79 12.83 10.94L12.83 10.94L12.83 10.94Q12.77 11.09 12.61 11.09L12.61 11.09L12.61 11.09Q12.57 11.06 12.43 10.98L12.43 10.98L12.43 10.98Q12.29 10.89 12.17 10.77L12.17 10.77L12.17 10.77Q12.04 10.64 12.04 10.51L12.04 10.51L12.04 10.22L10.63 10.22L10.63 10.22Q10.47 10.67 10.47 11.41L10.47 11.41L10.47 11.41Q10.47 11.89 10.51 12.35L10.51 12.35L10.51 12.35Q10.54 12.91 10.54 13.12L10.54 13.12L10.54 13.12Q10.54 13.17 10.58 14.64L10.58 14.64L10.58 14.64Q10.63 15.26 10.63 15.65L10.63 15.65L10.63 15.65Q11.20 15.85 11.66 15.89L11.66 15.89L11.66 15.89Q12.11 15.93 12.91 15.93L12.91 15.93L12.91 15.93Q13.12 15.83 13.16 15.64L13.16 15.64L13.16 15.64Q13.20 15.51 13.20 15.23L13.20 15.23L13.20 15.23Q13.20 14.94 13.25 14.78L13.25 14.78L13.25 14.78Q13.30 14.62 13.48 14.52L13.48 14.52L13.48 14.52Q13.86 14.52 13.96 14.90L13.96 14.90L13.96 14.90Q14.06 15.29 14.06 15.93L14.06 15.93L14.06 15.93Q14.06 16.13 13.92 16.30L13.92 16.30L13.92 16.30Q13.79 16.48 13.48 16.80L13.48 16.80L12.04 16.80L12.04 16.80Q10.61 16.80 9.61 16.75L9.61 16.75L9.61 16.75Q8.61 16.70 7.48 16.51L7.48 16.51L7.48 15.93L8.62 15.93L8.62 15.93Q8.75 15.19 8.75 14.31L8.75 14.31L8.75 14.31Q8.75 13.82 8.69 12.78L8.69 12.78L8.69 12.78Q8.62 11.87 8.62 11.09L8.62 11.09L8.62 10.51L8.62 7.64L8.62 6.51L8.62 3.95L7.48 3.95L7.48 3.37L7.48 3.37Q8.06 3.22 9.24 3.08L9.24 3.08L9.24 3.08Q10.36 2.94 10.91 2.80L10.91 2.80L13.76 2.80L13.76 2.80Q13.79 2.83 13.86 2.91L13.86 2.91L13.86 2.91Q13.93 2.98 13.99 3.12L13.99 3.12L13.99 3.12Q14.06 3.25 14.06 3.37L14.06 3.37L14.06 3.37Q14.06 3.54 14.13 3.85L14.13 3.85L14.13 3.85Q14.20 4.34 14.20 4.44L14.20 4.44L14.20 4.44Q14.20 4.75 14.04 4.91L14.04 4.91L14.04 4.91Q13.89 5.08 13.48 5.08L13.48 5.08ZM20.64 9.02L20.64 9.02Q21.03 9.52 21.24 10.26L21.24 10.26L21.24 10.26Q21.45 11.00 21.54 11.78L21.54 11.78L21.54 11.78Q21.63 12.56 21.70 13.78L21.70 13.78L21.70 13.78Q21.78 15.19 21.87 15.82L21.87 15.82L21.87 15.82Q22.18 15.82 22.32 15.87L22.32 15.87L22.32 15.87Q22.46 15.92 22.46 16.11L22.46 16.11L22.46 16.11Q22.46 16.80 21.45 16.80L21.45 16.80L21.45 16.80Q21.15 16.80 20.37 16.70L20.37 16.70L20.37 16.70Q20.19 16.52 20.15 16.30L20.15 16.30L20.15 16.21L20.15 16.21Q20.15 16.11 20.23 15.72L20.23 15.72L20.23 15.72Q20.27 15.51 20.32 15.23L20.32 15.23L20.32 15.23Q20.37 14.94 20.37 14.63L20.37 14.63L20.37 14.63Q20.37 14.20 20.30 13.83L20.30 13.83L20.30 13.83Q20.23 13.38 20.23 12.70L20.23 12.70L20.23 12.70Q20.20 11.87 20.12 11.36L20.12 11.36L20.12 11.36Q20.03 10.85 19.71 10.40L19.71 10.40L19.54 10.15L19.54 10.15Q19.35 9.83 19.12 9.60L19.12 9.60L19.12 9.60Q19.12 9.48 19.06 9.41L19.06 9.41L19.06 9.41Q19.00 9.34 18.84 9.24L18.84 9.24L18.84 9.24Q18.65 9.13 18.52 9.02L18.52 9.02L18.52 9.02Q18.23 9.02 18.08 9.07L18.08 9.07L18.08 9.07Q17.93 9.11 17.93 9.30L17.93 9.30L17.93 9.30Q17.79 10.01 17.79 10.88L17.79 10.88L17.79 10.88Q17.79 11.48 17.88 12.54L17.88 12.54L17.88 12.54Q17.93 13.47 17.93 13.80L17.93 13.80L17.93 13.80Q17.93 14.42 17.98 14.82L17.98 14.82L17.98 14.82Q18.03 15.22 18.21 15.62L18.21 15.62L18.21 15.62Q18.21 15.72 18.29 15.79L18.29 15.79L18.29 15.79Q18.37 15.85 18.52 15.92L18.52 15.92L18.52 15.92Q18.66 15.99 18.74 16.04L18.74 16.04L18.74 16.04Q18.82 16.10 18.82 16.20L18.82 16.20L18.82 16.20Q18.82 16.25 18.82 16.42L18.82 16.42L18.82 16.42Q18.82 16.59 18.76 16.66L18.76 16.66L18.76 16.66Q18.70 16.73 18.56 16.73L18.56 16.73L18.56 16.73Q18.31 16.73 17.98 16.69L17.98 16.69L17.98 16.69Q17.85 16.69 17.57 16.67L17.57 16.67L17.57 16.67Q17.29 16.65 17.08 16.65L17.08 16.65L17.08 16.65Q16.45 16.65 16.13 16.81L16.13 16.81L16.13 16.81Q15.75 16.81 15.57 16.79L15.57 16.79L15.57 16.79Q15.39 16.76 15.23 16.63L15.23 16.63L15.23 16.63Q15.08 16.49 14.92 16.20L14.92 16.20L14.92 16.20Q15.13 16.02 15.33 15.97L15.33 15.97L15.33 15.97Q15.53 15.92 15.82 15.92L15.82 15.92L15.82 10.81L15.82 10.81Q15.82 10.67 15.85 10.48L15.85 10.48L15.85 10.48Q15.88 10.29 15.89 10.21L15.89 10.21L15.89 10.21Q15.96 9.88 15.96 9.62L15.96 9.62L15.96 9.62Q15.96 9.30 15.82 9.02L15.82 9.02L15.82 9.02Q15.82 8.82 15.86 8.65L15.86 8.65L15.86 8.65Q15.92 8.29 15.92 8.23L15.92 8.23L15.92 8.23Q15.95 7.76 15.95 7.55L15.95 7.55L15.95 7.55Q15.95 7.11 15.89 6.22L15.89 6.22L15.89 6.22Q15.88 6.05 15.85 5.54L15.85 5.54L15.85 5.54Q15.82 5.03 15.82 4.51L15.82 4.51L15.82 4.51Q15.34 4.51 15.04 4.40L15.04 4.40L15.04 4.40Q14.73 4.30 14.73 4.07L14.73 4.07L14.73 4.07Q14.73 3.64 14.86 3.45L14.86 3.45L14.86 3.45Q14.99 3.26 15.24 3.22L15.24 3.22L15.24 3.22Q15.48 3.18 16.03 3.18L16.03 3.18L16.03 3.18Q16.18 3.18 16.38 3.09L16.38 3.09L16.38 3.09Q16.55 3.01 16.70 3.01L16.70 3.01L16.70 3.01Q17.54 2.87 18.33 2.87L18.33 2.87L18.33 2.87Q19.56 2.87 20.43 3.25L20.43 3.25L20.43 3.25Q21.31 3.63 21.52 4.51L21.52 4.51L21.52 4.51Q21.70 5.24 21.70 5.85L21.70 5.85L21.70 5.85Q21.70 6.47 21.52 6.90L21.52 6.90L21.52 6.90Q21.41 7.18 21.15 7.52L21.15 7.52L21.15 7.52Q20.89 7.85 20.64 8.11L20.64 8.11L20.33 8.41L20.33 8.41Q20.33 8.58 20.48 8.71L20.48 8.71L20.48 8.71Q20.64 8.86 20.64 9.02L20.64 9.02ZM17.65 3.93L17.65 3.93Q17.65 5.31 17.77 7.63L17.77 7.63L17.77 7.63Q17.77 7.78 18.00 7.78L18.00 7.78L18.00 7.78Q18.30 7.78 18.77 7.59L18.77 7.59L18.77 7.59Q19.25 7.39 19.43 7.21L19.43 7.21L19.43 7.21Q19.43 7.04 19.57 6.57L19.57 6.57L19.57 6.57Q19.68 6.22 19.71 6.02L19.71 6.02L19.71 6.02Q19.77 5.73 19.77 5.54L19.77 5.54L19.77 5.54Q19.77 5.40 19.74 5.22L19.74 5.22L19.74 5.22Q19.71 5.04 19.71 4.82L19.71 4.82L19.71 4.82Q19.71 4.56 19.60 4.40L19.60 4.40L19.60 4.40Q19.49 4.24 19.33 4.10L19.33 4.10L19.33 4.10Q19.18 3.96 19.12 3.91L19.12 3.91L17.65 3.93ZM29.30 5.78L29.30 5.78Q29.08 5.66 29.00 5.38L29.00 5.38L29.00 5.38Q28.92 5.10 28.90 4.63L28.90 4.63L28.90 4.63Q28.84 4.02 28.74 3.79L28.74 3.79L28.74 3.79Q27.73 3.79 27.00 3.94L27.00 3.94L27.00 3.94Q26.26 4.09 25.89 4.63L25.89 4.63L25.89 4.63Q25.84 4.73 25.62 5.17L25.62 5.17L25.62 5.17Q25.40 5.61 25.26 6.08L25.26 6.08L25.26 6.08Q25.13 6.54 25.13 6.96L25.13 6.96L25.13 6.96Q25.13 7.67 25.07 9.07L25.07 9.07L25.07 9.07Q25.06 9.42 25.05 9.95L25.05 9.95L25.05 9.95Q25.03 10.47 25.03 11.17L25.03 11.17L25.03 11.17Q25.03 11.69 24.96 12.32L24.96 12.32L24.96 12.32Q24.91 13.08 24.91 13.45L24.91 13.45L24.91 13.45Q24.91 14.10 25.03 14.59L25.03 14.59L25.03 14.59Q25.14 15.02 25.42 15.27L25.42 15.27L25.42 15.27Q25.69 15.51 26.03 15.63L26.03 15.63L26.03 15.63Q26.38 15.75 26.98 15.88L26.98 15.88L26.98 15.88Q27.44 15.97 27.59 16.02L27.59 16.02L27.59 16.02Q28.24 15.92 28.53 15.49L28.53 15.49L28.53 15.49Q28.83 15.06 28.90 14.49L28.90 14.49L28.90 14.49Q28.97 13.92 28.97 12.96L28.97 12.96L28.97 12.96Q28.97 12.33 29.01 11.75L29.01 11.75L29.01 11.75Q28.90 11.62 28.74 11.62L28.74 11.62L28.74 11.62Q28.64 11.62 28.55 11.67L28.55 11.67L28.55 11.67Q28.46 11.72 28.45 11.75L28.45 11.75L28.45 11.75Q28.32 12.00 28.29 12.50L28.29 12.50L28.29 12.50Q28.25 12.91 28.18 13.13L28.18 13.13L28.18 13.13Q28.11 13.34 27.87 13.45L27.87 13.45L27.87 13.45Q27.76 13.45 27.70 13.40L27.70 13.40L27.70 13.40Q27.64 13.34 27.54 13.20L27.54 13.20L27.54 13.20Q27.43 13.01 27.31 12.89L27.31 12.89L27.31 12.89Q27.31 12.25 27.36 11.76L27.36 11.76L27.36 11.76Q27.41 11.27 27.59 10.91L27.59 10.91L27.59 10.91Q27.75 10.91 27.95 10.89L27.95 10.89L27.95 10.89Q28.15 10.86 28.25 10.86L28.25 10.86L28.25 10.86Q28.56 10.82 28.87 10.82L28.87 10.82L28.87 10.82Q29.53 10.82 29.88 11.17L29.88 11.17L29.88 11.17Q30.00 11.30 30.00 11.47L30.00 11.47L30.00 11.47Q30.00 11.55 29.95 11.75L29.95 11.75L29.95 11.75Q29.88 11.91 29.88 12.04L29.88 12.04L29.88 12.04Q29.88 12.57 29.92 13.10L29.92 13.10L29.92 13.10Q29.95 13.78 29.95 14.07L29.95 14.07L29.95 14.07Q29.95 15.20 29.58 15.72L29.58 15.72L29.58 15.72Q29.58 15.85 29.46 15.97L29.46 15.97L29.46 15.97Q29.34 16.10 29.11 16.28L29.11 16.28L29.11 16.28Q28.92 16.41 28.74 16.59L28.74 16.59L28.74 16.59Q28.27 16.81 27.48 16.81L27.48 16.81L27.48 16.81Q26.73 16.81 26.18 16.59L26.18 16.59L26.18 16.59Q25.49 16.31 25.11 16.05L25.11 16.05L25.11 16.05Q24.72 15.79 24.43 15.44L24.43 15.44L24.43 15.44Q24.14 15.08 23.62 14.31L23.62 14.31L23.62 14.31Q23.04 12.64 23.04 11.17L23.04 11.17L23.04 9.48L23.04 9.48Q23.04 9.07 23.10 8.67L23.10 8.67L23.10 8.67Q23.16 8.26 23.28 7.53L23.28 7.53L23.28 7.53Q23.30 7.48 23.37 7.10L23.37 7.10L23.37 7.10Q23.44 6.72 23.58 6.38L23.58 6.38L23.58 6.38Q23.67 6.16 23.83 5.64L23.83 5.64L23.83 5.64Q23.95 5.19 24.08 4.90L24.08 4.90L24.08 4.90Q24.21 4.61 24.46 4.35L24.46 4.35L24.46 4.35Q24.61 4.20 24.75 3.92L24.75 3.92L24.75 3.92Q24.89 3.64 25.03 3.50L25.03 3.50L25.03 3.50Q25.16 3.50 25.29 3.44L25.29 3.44L25.29 3.44Q25.42 3.37 25.50 3.31L25.50 3.31L25.50 3.31Q25.58 3.25 25.61 3.22L25.61 3.22L25.61 3.22Q25.98 3.02 26.36 2.97L26.36 2.97L26.36 2.97Q26.74 2.93 27.31 2.93L27.31 2.93L27.31 2.93Q27.38 2.93 27.45 2.91L27.45 2.91L27.45 2.91Q27.52 2.90 27.61 2.88L27.61 2.88L27.61 2.88Q27.94 2.80 28.18 2.80L28.18 2.80L28.18 2.80Q28.49 2.80 28.74 2.93L28.74 2.93L28.74 2.93Q28.97 2.93 29.27 3.12L29.27 3.12L29.27 3.12Q29.58 3.30 29.58 3.50L29.58 3.50L29.58 3.50Q29.71 3.88 29.71 4.30L29.71 4.30L29.71 4.30Q29.71 4.76 29.58 5.19L29.58 5.19L29.58 5.19Q29.46 5.61 29.30 5.78L29.30 5.78ZM33.36 3.85L33.36 3.85Q33.24 4.19 33.24 4.66L33.24 4.66L33.24 4.66Q33.24 5.04 33.31 5.50L33.31 5.50L33.31 5.50Q33.32 5.60 33.35 5.90L33.35 5.90L33.35 5.90Q33.38 6.20 33.36 6.44L33.36 6.44L33.36 6.44Q33.33 7.29 33.25 9.17L33.25 9.17L33.25 9.17Q33.18 10.77 33.12 12.49L33.12 12.49L33.12 12.49Q33.07 14.21 33.07 15.65L33.07 15.65L33.07 15.65Q33.21 15.79 33.52 15.95L33.52 15.95L33.52 15.95Q33.80 16.09 33.92 16.21L33.92 16.21L33.92 16.21Q33.92 16.34 33.87 16.40L33.87 16.40L33.87 16.40Q33.81 16.46 33.67 16.56L33.67 16.56L33.67 16.56Q33.50 16.66 33.36 16.80L33.36 16.80L33.36 16.80Q33.21 16.73 32.83 16.67L32.83 16.67L32.83 16.67Q32.63 16.66 32.17 16.66L32.17 16.66L32.17 16.66Q31.70 16.66 31.38 16.63L31.38 16.63L31.38 16.63Q31.07 16.60 30.77 16.51L30.77 16.51L30.77 16.51Q30.74 16.49 30.69 16.41L30.69 16.41L30.69 16.41Q30.65 16.32 30.65 16.21L30.65 16.21L30.65 16.21Q30.65 16.06 30.77 15.95L30.77 15.95L30.77 15.95Q30.77 15.85 30.81 15.83L30.81 15.83L30.81 15.83Q30.86 15.81 30.95 15.81L30.95 15.81L30.95 15.81Q31.08 15.81 31.14 15.79L31.14 15.79L31.14 15.79Q31.28 15.74 31.33 15.65L31.33 15.65L31.33 15.65Q31.46 15.53 31.46 15.29L31.46 15.29L31.46 15.29Q31.46 15.18 31.43 15.03L31.43 15.03L31.43 15.03Q31.40 14.88 31.39 14.83L31.39 14.83L31.39 14.83Q31.33 14.57 31.33 14.50L31.33 14.50L31.33 14.50Q31.33 14.07 31.36 13.23L31.36 13.23L31.37 12.00L31.37 12.00Q31.36 11.93 31.35 11.74L31.35 11.74L31.35 11.74Q31.33 11.55 31.33 11.33L31.33 11.33L31.33 8.74L31.33 3.85L31.33 3.85Q31.07 3.85 30.92 3.80L30.92 3.80L30.92 3.80Q30.77 3.75 30.77 3.56L30.77 3.56L30.77 2.98L30.77 2.98Q30.77 2.86 30.87 2.86L30.87 2.86L30.87 2.86Q30.91 2.86 31.15 2.92L31.15 2.92L31.15 2.92Q31.39 2.98 31.63 2.98L31.63 2.98L31.63 2.98Q31.78 2.98 32.28 2.93L32.28 2.93L32.28 2.93Q32.40 2.91 32.69 2.88L32.69 2.88L32.69 2.88Q32.98 2.86 33.21 2.86L33.21 2.86L33.21 2.86Q33.68 2.86 33.92 2.98L33.92 2.98L33.92 2.98Q34.03 3.09 34.03 3.26L34.03 3.26L34.03 3.26Q34.03 3.49 33.84 3.67L33.84 3.67L33.84 3.67Q33.66 3.85 33.36 3.85L33.36 3.85ZM41.15 15.46L41.15 15.46Q41.01 15.71 40.78 15.95L40.78 15.95L40.78 15.95Q40.56 16.18 40.36 16.31L40.36 16.31L40.36 16.31Q39.55 16.83 38.64 16.83L38.64 16.83L38.64 16.83Q37.73 16.83 36.95 16.34L36.95 16.34L36.95 16.34Q36.18 15.86 35.80 15.16L35.80 15.16L35.80 15.16Q35.28 14.18 34.93 13.15L34.93 13.15L34.93 13.15Q34.75 12.40 34.70 11.64L34.70 11.64L34.70 11.64Q34.65 10.88 34.65 9.73L34.65 9.73L34.65 9.73Q34.65 9.55 34.62 9.21L34.62 9.21L34.62 9.21Q34.59 8.85 34.59 8.67L34.59 8.67L34.59 8.67Q34.59 8.34 34.65 8.01L34.65 8.01L34.65 8.01Q34.66 7.92 34.73 7.55L34.73 7.55L34.73 7.55Q34.80 7.17 34.80 6.92L34.80 6.92L34.80 6.92Q34.83 6.78 34.90 6.38L34.90 6.38L34.90 6.38Q34.96 6.01 35.02 5.78L35.02 5.78L35.02 5.78Q35.08 5.56 35.22 5.43L35.22 5.43L35.22 5.43Q35.38 5.22 35.69 4.75L35.69 4.75L35.69 4.75Q36.11 4.10 36.41 3.74L36.41 3.74L36.41 3.74Q36.71 3.37 37.16 3.11L37.16 3.11L37.16 3.11Q37.62 2.84 38.23 2.84L38.23 2.84L38.23 2.84Q38.51 2.84 38.67 2.87L38.67 2.87L38.67 2.87Q39.51 2.87 40.00 3.12L40.00 3.12L40.00 3.12Q40.50 3.37 40.94 4.02L40.94 4.02L40.94 4.02Q41.59 4.45 42.05 5.36L42.05 5.36L42.05 5.36Q42.50 6.27 42.60 7.36L42.60 7.36L42.60 7.36Q42.66 7.94 42.66 8.88L42.66 8.88L42.66 9.49L42.66 9.49Q42.66 10.92 42.42 11.91L42.42 11.91L42.42 11.91Q42 13.90 41.15 15.46L41.15 15.46ZM39.90 15.26L39.90 15.26Q40.08 14.80 40.31 14.08L40.31 14.08L40.31 14.08Q40.54 13.37 40.66 12.88L40.66 12.88L40.66 12.88Q40.84 12.31 40.89 11.73L40.89 11.73L40.89 11.73Q40.94 11.16 40.94 10.30L40.94 10.30L40.94 10.30Q40.94 10.01 40.99 9.56L40.99 9.56L40.99 9.56Q40.99 9.48 41.01 9.26L41.01 9.26L41.01 9.26Q41.03 9.04 41.03 8.85L41.03 8.85L41.03 8.85Q41.03 8.65 41.02 8.39L41.02 8.39L41.02 8.39Q41.01 8.13 40.99 7.99L40.99 7.99L40.99 7.99Q40.94 7.43 40.94 7.15L40.94 7.15L40.94 7.15Q40.80 6.87 40.66 6.31L40.66 6.31L40.66 6.31Q40.52 5.73 40.36 5.43L40.36 5.43L40.21 5.10L40.21 5.10Q39.96 4.55 39.76 4.24L39.76 4.24L39.76 4.24Q39.56 3.93 39.26 3.78L39.26 3.78L39.26 3.78Q38.98 3.78 38.70 3.75L38.70 3.75L38.70 3.75Q38.39 3.72 38.09 3.72L38.09 3.72L38.09 3.72Q37.67 4.14 37.42 4.60L37.42 4.60L37.42 4.60Q37.17 5.05 36.95 5.71L36.95 5.71L36.95 5.71Q36.75 6.09 36.70 6.48L36.70 6.48L36.70 6.48Q36.65 6.86 36.65 7.43L36.65 7.43L36.65 7.43Q36.54 8.33 36.54 9.42L36.54 9.42L36.54 9.42Q36.54 11.40 36.95 13.72L36.95 13.72L36.95 13.72Q37.04 13.92 37.11 14.14L37.11 14.14L37.11 14.14Q37.17 14.36 37.20 14.43L37.20 14.43L37.20 14.43Q37.28 14.73 37.34 14.89L37.34 14.89L37.34 14.89Q37.41 15.05 37.52 15.16L37.52 15.16L37.52 15.16Q37.63 15.16 37.67 15.20L37.67 15.20L37.67 15.20Q37.70 15.25 37.73 15.39L37.73 15.39L37.73 15.39Q37.76 15.53 37.84 15.61L37.84 15.61L37.84 15.61Q38.07 15.83 38.57 15.83L38.57 15.83L38.57 15.83Q39.00 15.83 39.40 15.67L39.40 15.67L39.40 15.67Q39.80 15.51 39.90 15.26L39.90 15.26ZM56.85 3.67L56.85 3.67Q56.85 3.77 56.90 3.83L56.90 3.83L56.90 3.83Q56.95 3.89 57.01 3.95L57.01 3.95L57.01 3.95Q57.16 4.07 57.16 4.23L57.16 4.23L57.16 4.23Q57.16 4.89 57.11 5.29L57.11 5.29L57.11 5.29Q57.05 5.68 56.85 5.68L56.85 5.68L56.85 5.68Q56.62 5.68 56.55 5.49L56.55 5.49L56.55 5.49Q56.48 5.29 56.43 4.87L56.43 4.87L56.43 4.87Q56.41 4.35 56.28 4.23L56.28 4.23L56.28 4.23Q55.64 4.02 55.01 4.02L55.01 4.02L55.01 4.02Q54.39 4.02 53.96 4.23L53.96 4.23L53.96 4.23Q53.77 4.41 53.51 4.97L53.51 4.97L53.51 4.97Q53.26 5.50 53.07 5.68L53.07 5.68L53.07 5.68Q53.07 5.75 53.02 5.92L53.02 5.92L53.02 5.92Q52.96 6.09 52.79 6.27L52.79 6.27L52.79 6.27Q52.58 7.07 52.53 7.76L52.53 7.76L52.53 7.76Q52.49 8.46 52.49 9.77L52.49 9.77L52.49 11.51L52.49 11.51Q53.13 15.16 54.53 15.89L54.53 15.89L54.53 15.89Q54.75 16.00 55.03 16.00L55.03 16.00L55.03 16.00Q55.31 16.00 55.61 15.90L55.61 15.90L55.61 15.90Q55.90 15.79 56.28 15.58L56.28 15.58L56.28 15.58Q56.39 15.37 56.41 15.11L56.41 15.11L56.41 15.11Q56.42 14.94 56.42 14.56L56.42 14.56L56.42 14.56Q56.42 14.20 56.44 13.96L56.44 13.96L56.44 13.96Q56.46 13.73 56.56 13.54L56.56 13.54L56.56 13.54Q56.80 13.54 56.92 13.59L56.92 13.59L56.92 13.59Q57.05 13.64 57.18 13.73L57.18 13.73L57.18 13.73Q57.19 13.75 57.27 13.80L57.27 13.80L57.27 13.80Q57.34 13.85 57.44 13.85L57.44 13.85L57.44 15.89L57.44 15.89Q57.05 16.83 55.45 16.83L55.45 16.83L55.45 16.83Q54.85 16.83 54.24 16.73L54.24 16.73L54.24 16.73Q53.63 16.63 52.79 16.45L52.79 16.45L52.79 16.45Q52.44 16.13 52.26 15.99L52.26 15.99L52.26 15.99Q51.86 15.67 51.58 15.39L51.58 15.39L51.58 15.39Q51.31 15.12 51.04 14.70L51.04 14.70L51.04 14.70Q50.90 14.04 50.75 13.47L50.75 13.47L50.75 13.47Q50.46 12.28 50.31 11.45L50.31 11.45L50.31 11.45Q50.16 10.61 50.16 9.77L50.16 9.77L50.16 9.77Q50.25 9.32 50.39 8.43L50.39 8.43L50.39 8.43Q50.55 7.39 50.69 6.71L50.69 6.71L50.69 6.71Q50.83 6.03 51.04 5.40L51.04 5.40L51.04 5.40Q51.16 5.28 51.30 5.00L51.30 5.00L51.30 5.00Q51.39 4.70 51.60 4.52L51.60 4.52L51.60 4.52Q52.11 3.81 52.95 3.30L52.95 3.30L52.95 3.30Q53.80 2.79 54.81 2.79L54.81 2.79L54.81 2.79Q55.17 2.90 55.43 2.95L55.43 2.95L55.43 2.95Q55.97 3.11 56.27 3.24L56.27 3.24L56.27 3.24Q56.56 3.37 56.85 3.67L56.85 3.67ZM60.65 3.85L60.65 3.85Q60.52 4.19 60.52 4.66L60.52 4.66L60.52 4.66Q60.52 5.04 60.59 5.50L60.59 5.50L60.59 5.50Q60.61 5.60 60.63 5.90L60.63 5.90L60.63 5.90Q60.66 6.20 60.65 6.44L60.65 6.44L60.65 6.44Q60.62 7.29 60.54 9.17L60.54 9.17L60.54 9.17Q60.47 10.77 60.41 12.49L60.41 12.49L60.41 12.49Q60.35 14.21 60.35 15.65L60.35 15.65L60.35 15.65Q60.49 15.79 60.80 15.95L60.80 15.95L60.80 15.95Q61.08 16.09 61.21 16.21L61.21 16.21L61.21 16.21Q61.21 16.34 61.15 16.40L61.15 16.40L61.15 16.40Q61.10 16.46 60.96 16.56L60.96 16.56L60.96 16.56Q60.79 16.66 60.65 16.80L60.65 16.80L60.65 16.80Q60.49 16.73 60.12 16.67L60.12 16.67L60.12 16.67Q59.92 16.66 59.46 16.66L59.46 16.66L59.46 16.66Q58.98 16.66 58.67 16.63L58.67 16.63L58.67 16.63Q58.35 16.60 58.06 16.51L58.06 16.51L58.06 16.51Q58.03 16.49 57.98 16.41L57.98 16.41L57.98 16.41Q57.93 16.32 57.93 16.21L57.93 16.21L57.93 16.21Q57.93 16.06 58.06 15.95L58.06 15.95L58.06 15.95Q58.06 15.85 58.10 15.83L58.10 15.83L58.10 15.83Q58.14 15.81 58.24 15.81L58.24 15.81L58.24 15.81Q58.37 15.81 58.42 15.79L58.42 15.79L58.42 15.79Q58.56 15.74 58.62 15.65L58.62 15.65L58.62 15.65Q58.74 15.53 58.74 15.29L58.74 15.29L58.74 15.29Q58.74 15.18 58.72 15.03L58.72 15.03L58.72 15.03Q58.69 14.88 58.67 14.83L58.67 14.83L58.67 14.83Q58.62 14.57 58.62 14.50L58.62 14.50L58.62 14.50Q58.62 14.07 58.65 13.23L58.65 13.23L58.66 12.00L58.66 12.00Q58.65 11.93 58.63 11.74L58.63 11.74L58.63 11.74Q58.62 11.55 58.62 11.33L58.62 11.33L58.62 8.74L58.62 3.85L58.62 3.85Q58.35 3.85 58.20 3.80L58.20 3.80L58.20 3.80Q58.06 3.75 58.06 3.56L58.06 3.56L58.06 2.98L58.06 2.98Q58.06 2.86 58.16 2.86L58.16 2.86L58.16 2.86Q58.20 2.86 58.44 2.92L58.44 2.92L58.44 2.92Q58.67 2.98 58.91 2.98L58.91 2.98L58.91 2.98Q59.07 2.98 59.57 2.93L59.57 2.93L59.57 2.93Q59.68 2.91 59.98 2.88L59.98 2.88L59.98 2.88Q60.27 2.86 60.49 2.86L60.49 2.86L60.49 2.86Q60.97 2.86 61.21 2.98L61.21 2.98L61.21 2.98Q61.32 3.09 61.32 3.26L61.32 3.26L61.32 3.26Q61.32 3.49 61.13 3.67L61.13 3.67L61.13 3.67Q60.94 3.85 60.65 3.85L60.65 3.85ZM65.11 15.72L65.11 15.72Q65.60 15.72 65.91 15.84L65.91 15.84L65.91 15.84Q66.22 15.96 66.22 16.18L66.22 16.18L66.22 16.18Q66.22 16.37 66.00 16.60L66.00 16.60L66.00 16.60Q65.63 16.60 64.61 16.67L64.61 16.67L64.61 16.67Q63.88 16.73 63.57 16.73L63.57 16.73L63.57 16.73Q62.97 16.73 62.47 16.60L62.47 16.60L62.47 16.60Q62.44 16.58 62.37 16.49L62.37 16.49L62.37 16.49Q62.30 16.41 62.23 16.28L62.23 16.28L62.23 16.28Q62.16 16.16 62.16 16.02L62.16 16.02L62.16 16.02Q62.38 15.79 62.50 15.76L62.50 15.76L62.50 15.76Q62.61 15.72 63.04 15.72L63.04 15.72L63.04 15.72Q63.21 15.57 63.21 15.16L63.21 15.16L63.21 15.16Q63.21 15.01 63.18 14.70L63.18 14.70L63.18 14.70Q63.15 14.42 63.15 14.31L63.15 14.31L63.15 13.87L63.15 13.87Q63.15 12.56 63.20 11.45L63.20 11.45L63.20 11.45Q63.22 10.14 63.22 9.51L63.22 9.51L63.22 9.51Q63.22 9.14 63.24 8.95L63.24 8.95L63.25 8.12L63.25 8.12Q63.25 7.56 63.22 7.25L63.22 7.25L63.22 7.25Q63.20 6.89 63.20 6.78L63.20 6.78L63.20 6.72L63.20 6.72Q63.20 6.43 63.21 6.24L63.21 6.24L63.21 6.24Q63.24 5.61 63.22 5.03L63.22 5.03L63.24 4.58L63.24 4.58Q63.24 4.38 63.20 4.26L63.20 4.26L63.20 4.26Q63.15 4.14 63.03 4.10L63.03 4.10L63.03 4.10Q62.87 4.03 62.65 4.03L62.65 4.03L62.65 4.03Q62.50 4.02 62.40 3.99L62.40 3.99L62.40 3.99Q62.31 3.96 62.19 3.85L62.19 3.85L62.19 3.85Q61.91 3.70 61.91 3.54L61.91 3.54L61.91 3.54Q61.91 3.44 61.99 3.35L61.99 3.35L61.99 3.35Q62.08 3.25 62.20 3.14L62.20 3.14L62.20 3.14Q62.31 3.04 62.38 2.98L62.38 2.98L62.38 2.98Q63.46 2.79 65.06 2.79L65.06 2.79L66.57 2.80L66.57 2.80Q66.68 2.80 66.76 2.79L66.76 2.79L66.76 2.79Q66.84 2.77 66.89 2.77L66.89 2.77L66.89 2.77Q67.03 2.77 67.17 2.80L67.17 2.80L67.17 2.80Q67.98 2.93 68.63 3.88L68.63 3.88L68.63 3.88Q69.27 4.84 69.51 6.03L69.51 6.03L69.51 6.03Q69.51 6.92 69.46 7.45L69.46 7.45L69.46 7.45Q69.41 7.98 69.22 8.39L69.22 8.39L69.22 8.39Q69.06 8.85 68.73 9.23L68.73 9.23L68.73 9.23Q68.40 9.60 67.87 10.05L67.87 10.05L67.87 10.05Q67.45 10.43 67.45 10.43L67.45 10.43L67.45 10.43Q67.05 10.64 66.63 10.69L66.63 10.69L66.63 10.69Q66.22 10.74 65.41 10.74L65.41 10.74L65.41 10.74Q65.38 10.74 65.32 10.75L65.32 10.75L65.32 10.75Q65.25 10.77 65.18 10.84L65.18 10.84L65.18 10.84Q65.11 10.91 65.11 11.03L65.11 11.03L65.11 11.03Q65.10 11.16 65.11 11.44L65.11 11.44L65.11 11.44Q65.11 11.72 65.11 11.87L65.11 11.87L65.11 12.19L65.11 12.19Q65.11 12.71 65.04 13.37L65.04 13.37L65.04 13.37Q65.03 13.52 65.00 13.89L65.00 13.89L65.00 13.89Q64.97 14.25 64.97 14.55L64.97 14.55L64.97 14.55Q64.97 15.16 65.11 15.72L65.11 15.72ZM65.11 8.09L65.11 9.55L65.11 9.55Q65.24 9.69 65.44 9.76L65.44 9.76L65.44 9.76Q65.63 9.83 65.84 9.83L65.84 9.83L65.84 9.83Q66.08 9.83 66.25 9.73L66.25 9.73L66.25 9.73Q66.67 9.46 67.00 9.01L67.00 9.01L67.00 9.01Q67.34 8.55 67.45 8.09L67.45 8.09L67.45 8.09Q67.48 7.95 67.56 7.67L67.56 7.67L67.56 7.67Q67.63 7.38 67.65 7.09L67.65 7.09L67.65 7.09Q67.66 6.80 67.66 6.38L67.66 6.38L67.66 6.38Q67.66 5.74 67.52 5.09L67.52 5.09L67.52 5.09Q67.38 4.44 67.17 3.99L67.17 3.99L67.17 3.99Q67.06 3.99 66.93 3.94L66.93 3.94L66.93 3.94Q66.81 3.89 66.77 3.88L66.77 3.88L66.77 3.88Q66.37 3.68 66.00 3.68L66.00 3.68L65.11 3.68L65.11 3.68Q64.97 4.38 64.97 5.15L64.97 5.15L64.97 5.15Q64.97 5.53 65.00 5.99L65.00 5.99L65.00 5.99Q65.03 6.45 65.04 6.64L65.04 6.64L65.04 6.64Q65.11 7.45 65.11 8.09L65.11 8.09ZM75.01 9.02L75.01 9.02Q75.40 9.52 75.61 10.26L75.61 10.26L75.61 10.26Q75.82 11.00 75.91 11.78L75.91 11.78L75.91 11.78Q76.01 12.56 76.08 13.78L76.08 13.78L76.08 13.78Q76.16 15.19 76.24 15.82L76.24 15.82L76.24 15.82Q76.55 15.82 76.69 15.87L76.69 15.87L76.69 15.87Q76.83 15.92 76.83 16.11L76.83 16.11L76.83 16.11Q76.83 16.80 75.82 16.80L75.82 16.80L75.82 16.80Q75.53 16.80 74.75 16.70L74.75 16.70L74.75 16.70Q74.56 16.52 74.52 16.30L74.52 16.30L74.52 16.21L74.52 16.21Q74.52 16.11 74.61 15.72L74.61 15.72L74.61 15.72Q74.65 15.51 74.70 15.23L74.70 15.23L74.70 15.23Q74.75 14.94 74.75 14.63L74.75 14.63L74.75 14.63Q74.75 14.20 74.68 13.83L74.68 13.83L74.68 13.83Q74.61 13.38 74.61 12.70L74.61 12.70L74.61 12.70Q74.58 11.87 74.49 11.36L74.49 11.36L74.49 11.36Q74.41 10.85 74.09 10.40L74.09 10.40L73.92 10.15L73.92 10.15Q73.72 9.83 73.50 9.60L73.50 9.60L73.50 9.60Q73.50 9.48 73.44 9.41L73.44 9.41L73.44 9.41Q73.37 9.34 73.22 9.24L73.22 9.24L73.22 9.24Q73.02 9.13 72.90 9.02L72.90 9.02L72.90 9.02Q72.60 9.02 72.46 9.07L72.46 9.07L72.46 9.07Q72.31 9.11 72.31 9.30L72.31 9.30L72.31 9.30Q72.17 10.01 72.17 10.88L72.17 10.88L72.17 10.88Q72.17 11.48 72.25 12.54L72.25 12.54L72.25 12.54Q72.31 13.47 72.31 13.80L72.31 13.80L72.31 13.80Q72.31 14.42 72.36 14.82L72.36 14.82L72.36 14.82Q72.41 15.22 72.59 15.62L72.59 15.62L72.59 15.62Q72.59 15.72 72.67 15.79L72.67 15.79L72.67 15.79Q72.74 15.85 72.90 15.92L72.90 15.92L72.90 15.92Q73.04 15.99 73.11 16.04L73.11 16.04L73.11 16.04Q73.19 16.10 73.19 16.20L73.19 16.20L73.19 16.20Q73.19 16.25 73.19 16.42L73.19 16.42L73.19 16.42Q73.19 16.59 73.14 16.66L73.14 16.66L73.14 16.66Q73.08 16.73 72.94 16.73L72.94 16.73L72.94 16.73Q72.69 16.73 72.35 16.69L72.35 16.69L72.35 16.69Q72.23 16.69 71.95 16.67L71.95 16.67L71.95 16.67Q71.67 16.65 71.46 16.65L71.46 16.65L71.46 16.65Q70.83 16.65 70.50 16.81L70.50 16.81L70.50 16.81Q70.13 16.81 69.94 16.79L69.94 16.79L69.94 16.79Q69.76 16.76 69.61 16.63L69.61 16.63L69.61 16.63Q69.45 16.49 69.30 16.20L69.30 16.20L69.30 16.20Q69.51 16.02 69.71 15.97L69.71 15.97L69.71 15.97Q69.90 15.92 70.20 15.92L70.20 15.92L70.20 10.81L70.20 10.81Q70.20 10.67 70.22 10.48L70.22 10.48L70.22 10.48Q70.25 10.29 70.27 10.21L70.27 10.21L70.27 10.21Q70.34 9.88 70.34 9.62L70.34 9.62L70.34 9.62Q70.34 9.30 70.20 9.02L70.20 9.02L70.20 9.02Q70.20 8.82 70.24 8.65L70.24 8.65L70.24 8.65Q70.29 8.29 70.29 8.23L70.29 8.23L70.29 8.23Q70.32 7.76 70.32 7.55L70.32 7.55L70.32 7.55Q70.32 7.11 70.27 6.22L70.27 6.22L70.27 6.22Q70.25 6.05 70.22 5.54L70.22 5.54L70.22 5.54Q70.20 5.03 70.20 4.51L70.20 4.51L70.20 4.51Q69.72 4.51 69.41 4.40L69.41 4.40L69.41 4.40Q69.10 4.30 69.10 4.07L69.10 4.07L69.10 4.07Q69.10 3.64 69.24 3.45L69.24 3.45L69.24 3.45Q69.37 3.26 69.61 3.22L69.61 3.22L69.61 3.22Q69.86 3.18 70.41 3.18L70.41 3.18L70.41 3.18Q70.56 3.18 70.76 3.09L70.76 3.09L70.76 3.09Q70.92 3.01 71.08 3.01L71.08 3.01L71.08 3.01Q71.92 2.87 72.70 2.87L72.70 2.87L72.70 2.87Q73.93 2.87 74.81 3.25L74.81 3.25L74.81 3.25Q75.68 3.63 75.89 4.51L75.89 4.51L75.89 4.51Q76.08 5.24 76.08 5.85L76.08 5.85L76.08 5.85Q76.08 6.47 75.89 6.90L75.89 6.90L75.89 6.90Q75.78 7.18 75.52 7.52L75.52 7.52L75.52 7.52Q75.26 7.85 75.01 8.11L75.01 8.11L74.70 8.41L74.70 8.41Q74.70 8.58 74.86 8.71L74.86 8.71L74.86 8.71Q75.01 8.86 75.01 9.02L75.01 9.02ZM72.03 3.93L72.03 3.93Q72.03 5.31 72.14 7.63L72.14 7.63L72.14 7.63Q72.14 7.78 72.38 7.78L72.38 7.78L72.38 7.78Q72.67 7.78 73.15 7.59L73.15 7.59L73.15 7.59Q73.63 7.39 73.81 7.21L73.81 7.21L73.81 7.21Q73.81 7.04 73.95 6.57L73.95 6.57L73.95 6.57Q74.06 6.22 74.09 6.02L74.09 6.02L74.09 6.02Q74.14 5.73 74.14 5.54L74.14 5.54L74.14 5.54Q74.14 5.40 74.12 5.22L74.12 5.22L74.12 5.22Q74.09 5.04 74.09 4.82L74.09 4.82L74.09 4.82Q74.09 4.56 73.98 4.40L73.98 4.40L73.98 4.40Q73.86 4.24 73.71 4.10L73.71 4.10L73.71 4.10Q73.56 3.96 73.50 3.91L73.50 3.91L72.03 3.93ZM80.53 3.85L80.53 3.85Q80.40 4.19 80.40 4.66L80.40 4.66L80.40 4.66Q80.40 5.04 80.47 5.50L80.47 5.50L80.47 5.50Q80.49 5.60 80.51 5.90L80.51 5.90L80.51 5.90Q80.54 6.20 80.53 6.44L80.53 6.44L80.53 6.44Q80.50 7.29 80.42 9.17L80.42 9.17L80.42 9.17Q80.35 10.77 80.29 12.49L80.29 12.49L80.29 12.49Q80.23 14.21 80.23 15.65L80.23 15.65L80.23 15.65Q80.37 15.79 80.68 15.95L80.68 15.95L80.68 15.95Q80.96 16.09 81.09 16.21L81.09 16.21L81.09 16.21Q81.09 16.34 81.03 16.40L81.03 16.40L81.03 16.40Q80.98 16.46 80.84 16.56L80.84 16.56L80.84 16.56Q80.67 16.66 80.53 16.80L80.53 16.80L80.53 16.80Q80.37 16.73 80.00 16.67L80.00 16.67L80.00 16.67Q79.80 16.66 79.34 16.66L79.34 16.66L79.34 16.66Q78.86 16.66 78.55 16.63L78.55 16.63L78.55 16.63Q78.23 16.60 77.94 16.51L77.94 16.51L77.94 16.51Q77.91 16.49 77.86 16.41L77.86 16.41L77.86 16.41Q77.81 16.32 77.81 16.21L77.81 16.21L77.81 16.21Q77.81 16.06 77.94 15.95L77.94 15.95L77.94 15.95Q77.94 15.85 77.98 15.83L77.98 15.83L77.98 15.83Q78.02 15.81 78.12 15.81L78.12 15.81L78.12 15.81Q78.25 15.81 78.30 15.79L78.30 15.79L78.30 15.79Q78.44 15.74 78.50 15.65L78.50 15.65L78.50 15.65Q78.62 15.53 78.62 15.29L78.62 15.29L78.62 15.29Q78.62 15.18 78.60 15.03L78.60 15.03L78.60 15.03Q78.57 14.88 78.55 14.83L78.55 14.83L78.55 14.83Q78.50 14.57 78.50 14.50L78.50 14.50L78.50 14.50Q78.50 14.07 78.53 13.23L78.53 13.23L78.54 12.00L78.54 12.00Q78.53 11.93 78.51 11.74L78.51 11.74L78.51 11.74Q78.50 11.55 78.50 11.33L78.50 11.33L78.50 8.74L78.50 3.85L78.50 3.85Q78.23 3.85 78.08 3.80L78.08 3.80L78.08 3.80Q77.94 3.75 77.94 3.56L77.94 3.56L77.94 2.98L77.94 2.98Q77.94 2.86 78.04 2.86L78.04 2.86L78.04 2.86Q78.08 2.86 78.32 2.92L78.32 2.92L78.32 2.92Q78.55 2.98 78.79 2.98L78.79 2.98L78.79 2.98Q78.95 2.98 79.45 2.93L79.45 2.93L79.45 2.93Q79.56 2.91 79.86 2.88L79.86 2.88L79.86 2.88Q80.15 2.86 80.37 2.86L80.37 2.86L80.37 2.86Q80.85 2.86 81.09 2.98L81.09 2.98L81.09 2.98Q81.20 3.09 81.20 3.26L81.20 3.26L81.20 3.26Q81.20 3.49 81.01 3.67L81.01 3.67L81.01 3.67Q80.82 3.85 80.53 3.85L80.53 3.85ZM87.19 15.65L87.19 15.65Q87.19 13.79 87.14 12.54L87.14 12.54L87.14 12.54Q87.09 11.30 86.88 10.32L86.88 10.32L86.88 10.32Q86.60 10.32 85.97 10.19L85.97 10.19L85.97 10.19Q85.08 10.02 84.56 10.02L84.56 10.02L84.56 10.02Q84.35 10.22 84.30 10.57L84.30 10.57L84.30 10.57Q84.25 10.92 84.25 11.54L84.25 11.54L84.25 11.54Q84.04 12.32 83.99 13.24L83.99 13.24L83.99 13.24Q83.93 14.17 83.93 15.67L83.93 15.67L83.93 15.67Q84.06 15.76 84.17 15.79L84.17 15.79L84.17 15.79Q84.25 15.81 84.41 15.81L84.41 15.81L84.41 15.81Q84.55 15.81 84.64 15.83L84.64 15.83L84.64 15.83Q84.74 15.85 84.83 15.93L84.83 15.93L84.83 15.93Q84.83 16.16 84.81 16.32L84.81 16.32L84.81 16.32Q84.80 16.48 84.78 16.52L84.78 16.52L84.78 16.52Q84.42 16.77 84.04 16.79L84.04 16.79L84.04 16.79Q83.97 16.80 83.82 16.80L83.82 16.80L83.82 16.80Q83.55 16.80 83.30 16.76L83.30 16.76L83.30 16.76Q82.96 16.73 82.80 16.73L82.80 16.73L82.80 16.73Q82.47 16.73 82.19 16.83L82.19 16.83L81.58 16.24L81.58 16.24Q82.10 15.67 82.46 15.67L82.46 15.67L82.46 15.67Q82.67 15.67 82.72 15.52L82.72 15.52L82.72 15.52Q82.77 15.37 82.77 15.06L82.77 15.06L82.77 15.06Q82.94 13.96 83.26 11.42L83.26 11.42L83.26 11.42Q83.52 9.30 83.64 8.55L83.64 8.55L83.64 8.55Q83.64 7.94 83.81 7.32L83.81 7.32L83.81 7.32Q83.99 6.71 84.25 6.20L84.25 6.20L84.25 6.20Q84.46 5.39 84.81 4.72L84.81 4.72L84.81 4.72Q85.16 4.05 85.71 3.25L85.71 3.25L85.71 3.25Q85.74 3.22 85.86 3.12L85.86 3.12L85.86 3.12Q85.97 3.02 86.16 2.93L86.16 2.93L86.16 2.93Q86.34 2.84 86.53 2.84L86.53 2.84L86.53 2.84Q86.73 2.84 86.88 2.94L86.88 2.94L86.88 2.94Q87.18 3.08 87.47 3.46L87.47 3.46L87.47 3.46Q87.75 3.84 87.93 4.27L87.93 4.27L87.93 4.27Q88.12 4.70 88.12 5.01L88.12 5.01L88.12 5.01Q88.45 5.70 88.56 6.59L88.56 6.59L88.56 6.59Q88.68 7.57 88.96 10.78L88.96 10.78L88.96 10.78Q89.10 12.56 89.25 14.17L89.25 14.17L89.25 15.96L89.25 15.96Q89.25 16.03 89.31 16.12L89.31 16.12L89.31 16.12Q89.36 16.21 89.38 16.24L89.38 16.24L89.38 16.24Q89.53 16.42 89.53 16.55L89.53 16.55L89.53 16.55Q89.53 16.72 89.25 16.84L89.25 16.84L88.89 16.76L88.89 16.76Q88.47 16.76 88.05 16.80L88.05 16.80L88.05 16.80Q87.91 16.81 87.65 16.83L87.65 16.83L87.65 16.83Q87.40 16.84 87.19 16.84L87.19 16.84L87.19 16.84Q87.11 16.86 86.94 16.88L86.94 16.88L86.94 16.88Q86.77 16.90 86.67 16.90L86.67 16.90L86.67 16.90Q86.41 16.90 86.41 16.73L86.41 16.73L86.41 16.73Q86.41 16.58 86.54 16.32L86.54 16.32L86.54 16.32Q86.67 16.06 86.86 15.86L86.86 15.86L86.86 15.86Q87.05 15.65 87.19 15.65L87.19 15.65ZM85.71 4.70L85.71 4.70Q85.48 5.36 85.25 6.13L85.25 6.13L85.25 6.13Q85.02 6.90 84.83 7.67L84.83 7.67L84.83 7.67Q84.83 7.84 84.70 8.34L84.70 8.34L84.70 8.34Q84.56 8.96 84.56 9.17L84.56 9.17L84.56 9.17Q85.13 9.34 85.69 9.39L85.69 9.39L85.69 9.39Q86.24 9.44 86.88 9.44L86.88 9.44L86.88 7.67L86.88 7.67Q86.88 7.04 86.72 6.21L86.72 6.21L86.72 6.21Q86.56 5.38 86.32 4.70L86.32 4.70L86.32 4.70Q86.32 4.63 86.27 4.52L86.27 4.52L86.27 4.52Q86.21 4.41 86.02 4.41L86.02 4.41L85.71 4.70ZM98.56 3.00L98.56 3.00Q98.56 3.12 98.50 3.25L98.50 3.25L98.50 3.25Q98.43 3.37 98.37 3.45L98.37 3.45L98.37 3.45Q98.31 3.53 98.28 3.56L98.28 3.56L97.71 3.56L97.71 3.56Q97.58 3.68 97.58 3.85L97.58 3.85L97.58 3.85Q97.58 3.92 97.64 4.14L97.64 4.14L97.64 4.14Q97.71 4.52 97.71 4.69L97.71 4.69L97.71 7.87L97.71 7.87Q97.71 12.96 97.93 16.17L97.93 16.17L97.93 16.17Q97.94 16.51 97.76 16.66L97.76 16.66L97.76 16.66Q97.58 16.81 97.31 16.81L97.31 16.81L97.31 16.81Q97.12 16.81 96.93 16.74L96.93 16.74L96.93 16.74Q96.74 16.67 96.64 16.58L96.64 16.58L96.64 16.58Q96.53 16.24 96.38 15.80L96.38 15.80L96.38 15.80Q96.24 15.36 96.05 14.80L96.05 14.80L96.05 14.80Q95.03 11.80 94.61 10.32L94.61 10.32L94.61 10.32Q94.49 9.84 94.23 9.28L94.23 9.28L94.23 9.28Q93.98 8.71 93.95 8.65L93.95 8.65L93.95 8.65Q93.87 8.47 93.83 8.35L93.83 8.35L93.83 8.35Q93.79 8.23 93.77 8.20L93.77 8.20L93.77 8.20Q93.66 7.95 93.60 7.56L93.60 7.56L93.60 7.56Q93.53 7.20 93.45 7.01L93.45 7.01L93.45 7.01Q93.37 6.82 93.13 6.69L93.13 6.69L93.13 8.65L93.13 10.89L93.13 13.15L93.13 13.99L93.13 15.39L93.13 15.39Q93.31 15.57 93.50 15.62L93.50 15.62L93.50 15.62Q93.69 15.67 93.95 15.67L93.95 15.67L93.95 15.67Q93.95 15.81 93.98 16.09L93.98 16.09L93.98 16.09Q94.01 16.31 94.01 16.39L94.01 16.39L94.01 16.39Q94.01 16.59 93.93 16.69L93.93 16.69L93.93 16.69Q93.86 16.79 93.65 16.79L93.65 16.79L93.02 16.80L91.14 16.84L91.14 16.84Q91.03 16.84 90.99 16.75L90.99 16.75L90.99 16.75Q90.96 16.66 90.96 16.48L90.96 16.48L90.96 16.48Q90.96 16.28 90.97 16.17L90.97 16.17L90.99 15.75L90.99 15.75Q91.01 15.76 91.11 15.79L91.11 15.79L91.11 15.79Q91.20 15.82 91.28 15.82L91.28 15.82L91.28 15.82Q91.45 15.82 91.45 15.67L91.45 15.67L91.45 15.67Q91.60 15.34 91.60 14.81L91.60 14.81L91.60 14.81Q91.60 14.59 91.57 14.20L91.57 14.20L91.57 14.20Q91.55 13.83 91.55 13.71L91.55 13.71L91.55 13.71Q91.55 13.22 91.49 12.21L91.49 12.21L91.49 12.21Q91.45 11.59 91.45 11.19L91.45 11.19L91.43 9.21L91.43 9.21Q91.43 8.89 91.38 8.36L91.38 8.36L91.38 8.36Q91.32 7.83 91.32 7.56L91.32 7.56L91.32 7.56Q91.32 7.48 91.25 7.13L91.25 7.13L91.25 7.13Q91.17 6.82 91.17 6.69L91.17 6.69L91.17 6.41L91.17 5.56L91.17 5.56Q91.17 5.35 91.15 5.26L91.15 5.26L91.14 4.84L91.14 4.84Q91.14 4.62 91 4.28L91 4.28L91 4.28Q90.89 4.00 90.89 3.88L90.89 3.88L90.89 3.88Q90.48 3.88 90.26 3.71L90.26 3.71L90.26 3.71Q90.03 3.54 90.03 3.32L90.03 3.32L90.03 3.32Q90.03 3.11 90.17 2.95L90.17 2.95L90.17 2.95Q90.31 2.80 90.52 2.80L90.52 2.80L90.52 2.80Q90.64 2.80 90.70 2.79L90.70 2.79L90.70 2.79Q90.76 2.79 90.82 2.79L90.82 2.79L90.82 2.79Q90.94 2.76 91.17 2.74L91.17 2.74L91.17 2.74Q91.27 2.73 91.39 2.75L91.39 2.75L91.39 2.75Q91.52 2.77 91.59 2.77L91.59 2.77L91.59 2.77Q91.87 2.80 92.08 2.80L92.08 2.80L92.08 2.80Q92.25 2.80 92.36 2.91L92.36 2.91L92.36 2.91Q92.47 3.02 92.52 3.15L92.52 3.15L92.52 3.15Q92.57 3.28 92.57 3.32L92.57 3.32L92.57 3.32Q93.11 4.12 93.51 5.01L93.51 5.01L93.51 5.01Q93.90 5.89 94.43 7.28L94.43 7.28L94.43 7.28Q94.89 8.50 95.09 8.93L95.09 8.93L95.09 8.93Q95.27 9.51 95.47 9.93L95.47 9.93L95.47 9.93Q95.66 10.36 95.94 10.89L95.94 10.89L95.94 10.89Q95.94 11.09 95.99 11.26L95.99 11.26L95.99 11.26Q96.04 11.44 96.18 11.76L96.18 11.76L96.18 11.76Q96.22 11.84 96.32 12.21L96.32 12.21L96.32 12.21Q96.43 12.56 96.57 12.94L96.57 12.94L96.57 12.94Q96.71 13.33 96.84 13.50L96.84 13.50L96.84 13.50Q96.87 13.54 96.87 13.49L96.87 13.49L96.87 13.49Q96.88 13.44 96.88 13.34L96.88 13.34L96.88 13.34Q96.88 13.13 96.82 12.40L96.82 12.40L96.82 12.40Q96.77 11.68 96.77 11.47L96.77 11.47L96.77 11.47Q96.77 10.84 96.82 9.27L96.82 9.27L96.82 9.27Q96.88 7.59 96.88 6.65L96.88 6.65L96.88 6.37L96.88 6.37Q96.88 5.94 96.74 5.24L96.74 5.24L96.74 5.24Q96.60 4.54 96.60 4.12L96.60 4.12L96.60 4.12Q96.33 3.85 96.13 3.70L96.13 3.70L96.13 3.70Q95.93 3.56 95.75 3.56L95.75 3.56L95.75 3.56Q95.66 3.47 95.56 3.40L95.56 3.40L95.56 3.40Q95.45 3.32 95.40 3.25L95.40 3.25L95.40 3.25Q95.35 3.18 95.35 3.08L95.35 3.08L95.35 3.08Q95.35 2.93 95.47 2.70L95.47 2.70L95.47 2.70Q95.59 2.70 95.67 2.74L95.67 2.74L95.67 2.74Q95.75 2.79 95.97 2.79L95.97 2.79L95.97 2.79Q96.24 2.79 96.40 2.75L96.40 2.75L96.40 2.75Q96.56 2.72 96.60 2.70L96.60 2.70L96.60 2.70Q96.77 2.74 96.96 2.74L96.96 2.74L96.96 2.74Q97.10 2.74 97.41 2.72L97.41 2.72L97.41 2.72Q97.85 2.69 98.03 2.70L98.03 2.70L98.03 2.70Q98.43 2.73 98.56 3.00L98.56 3.00ZM105.70 15.46L105.70 15.46Q105.56 15.71 105.34 15.95L105.34 15.95L105.34 15.95Q105.11 16.18 104.92 16.31L104.92 16.31L104.92 16.31Q104.10 16.83 103.19 16.83L103.19 16.83L103.19 16.83Q102.28 16.83 101.51 16.34L101.51 16.34L101.51 16.34Q100.73 15.86 100.35 15.16L100.35 15.16L100.35 15.16Q99.83 14.18 99.48 13.15L99.48 13.15L99.48 13.15Q99.30 12.40 99.25 11.64L99.25 11.64L99.25 11.64Q99.20 10.88 99.20 9.73L99.20 9.73L99.20 9.73Q99.20 9.55 99.18 9.21L99.18 9.21L99.18 9.21Q99.15 8.85 99.15 8.67L99.15 8.67L99.15 8.67Q99.15 8.34 99.20 8.01L99.20 8.01L99.20 8.01Q99.22 7.92 99.29 7.55L99.29 7.55L99.29 7.55Q99.36 7.17 99.36 6.92L99.36 6.92L99.36 6.92Q99.39 6.78 99.46 6.38L99.46 6.38L99.46 6.38Q99.51 6.01 99.58 5.78L99.58 5.78L99.58 5.78Q99.64 5.56 99.78 5.43L99.78 5.43L99.78 5.43Q99.93 5.22 100.24 4.75L100.24 4.75L100.24 4.75Q100.66 4.10 100.96 3.74L100.96 3.74L100.96 3.74Q101.26 3.37 101.72 3.11L101.72 3.11L101.72 3.11Q102.17 2.84 102.79 2.84L102.79 2.84L102.79 2.84Q103.07 2.84 103.22 2.87L103.22 2.87L103.22 2.87Q104.06 2.87 104.56 3.12L104.56 3.12L104.56 3.12Q105.06 3.37 105.49 4.02L105.49 4.02L105.49 4.02Q106.15 4.45 106.60 5.36L106.60 5.36L106.60 5.36Q107.06 6.27 107.16 7.36L107.16 7.36L107.16 7.36Q107.21 7.94 107.21 8.88L107.21 8.88L107.21 9.49L107.21 9.49Q107.21 10.92 106.97 11.91L106.97 11.91L106.97 11.91Q106.55 13.90 105.70 15.46L105.70 15.46ZM104.45 15.26L104.45 15.26Q104.64 14.80 104.87 14.08L104.87 14.08L104.87 14.08Q105.10 13.37 105.21 12.88L105.21 12.88L105.21 12.88Q105.39 12.31 105.44 11.73L105.44 11.73L105.44 11.73Q105.49 11.16 105.49 10.30L105.49 10.30L105.49 10.30Q105.49 10.01 105.55 9.56L105.55 9.56L105.55 9.56Q105.55 9.48 105.57 9.26L105.57 9.26L105.57 9.26Q105.59 9.04 105.59 8.85L105.59 8.85L105.59 8.85Q105.59 8.65 105.57 8.39L105.57 8.39L105.57 8.39Q105.56 8.13 105.55 7.99L105.55 7.99L105.55 7.99Q105.49 7.43 105.49 7.15L105.49 7.15L105.49 7.15Q105.35 6.87 105.21 6.31L105.21 6.31L105.21 6.31Q105.07 5.73 104.92 5.43L104.92 5.43L104.76 5.10L104.76 5.10Q104.51 4.55 104.31 4.24L104.31 4.24L104.31 4.24Q104.12 3.93 103.81 3.78L103.81 3.78L103.81 3.78Q103.53 3.78 103.25 3.75L103.25 3.75L103.25 3.75Q102.94 3.72 102.65 3.72L102.65 3.72L102.65 3.72Q102.23 4.14 101.98 4.60L101.98 4.60L101.98 4.60Q101.72 5.05 101.50 5.71L101.50 5.71L101.50 5.71Q101.30 6.09 101.26 6.48L101.26 6.48L101.26 6.48Q101.21 6.86 101.21 7.43L101.21 7.43L101.21 7.43Q101.09 8.33 101.09 9.42L101.09 9.42L101.09 9.42Q101.09 11.40 101.50 13.72L101.50 13.72L101.50 13.72Q101.60 13.92 101.66 14.14L101.66 14.14L101.66 14.14Q101.72 14.36 101.75 14.43L101.75 14.43L101.75 14.43Q101.84 14.73 101.90 14.89L101.90 14.89L101.90 14.89Q101.96 15.05 102.07 15.16L102.07 15.16L102.07 15.16Q102.19 15.16 102.22 15.20L102.22 15.20L102.22 15.20Q102.26 15.25 102.28 15.39L102.28 15.39L102.28 15.39Q102.31 15.53 102.40 15.61L102.40 15.61L102.40 15.61Q102.62 15.83 103.12 15.83L103.12 15.83L103.12 15.83Q103.56 15.83 103.96 15.67L103.96 15.67L103.96 15.67Q104.36 15.51 104.45 15.26L104.45 15.26Z"></path></g><!----><!----></svg>