<svg data-v-423bf9ae="" xmlns="http://www.w3.org/2000/svg" viewBox="0 0 538.3520158424418 60" class="font"><!----><!----><!----><g data-v-423bf9ae="" id="dc5d6ddb-5896-4300-aac4-21ff3ebf2f80" fill="black" transform="matrix(6.1037640351658435,0,0,6.1037640351658435,3.1129125120150434,-11.597152725752565)"><path d="M3.33 1.96L3.33 1.96L3.33 1.96Q4.96 1.96 5.51 3.01L5.51 3.01L5.51 3.01Q5.89 3.80 5.89 4.56L5.89 4.56L5.88 4.56L5.88 4.56Q4.76 4.66 4.35 4.66L4.35 4.66L4.35 4.66Q4.35 4.12 4.02 3.75L4.02 3.75L4.02 3.75Q3.71 3.57 3.44 3.57L3.44 3.57L3.17 3.57L3.17 3.57Q2.47 3.57 2.32 4.11L2.32 4.11L2.32 4.11Q2.28 4.27 2.28 4.35L2.28 4.35L2.28 4.50L2.28 4.50Q2.28 5.26 3.09 5.61L3.09 5.61L3.09 5.61Q3.16 5.67 4.21 6.12L4.21 6.12L4.21 6.12Q4.77 6.38 5.25 6.76L5.25 6.76L5.25 6.77L3.53 6.77L3.53 6.97L5.80 6.97L5.80 7.24L6.08 7.24L6.08 10.21L5.52 10.21L5.52 11.73L1.18 11.73L1.18 10.21L0.15 10.21L0.15 9.18L0.73 9.18L0.73 8.83L0.15 8.83L0.15 8.59L2.14 8.59L2.14 10.21L4.18 10.21L4.18 7.77L2.65 7.77L2.65 6.97L0.76 6.97L0.76 6.77L1.67 6.77L1.67 6.76L1.67 6.76Q0.47 5.96 0.47 4.50L0.47 4.50L0.47 4.37L0.47 4.37Q0.47 3.14 1.22 2.51L1.22 2.51L1.22 2.51Q1.91 1.96 3.33 1.96ZM5.80 6.97L5.80 6.77L6.49 6.77L6.49 6.97L5.80 6.97ZM-0.51 9.18L-0.51 8.83L0.15 8.83L0.15 9.18L-0.51 9.18ZM7.24 6.80L7.24 2.00L12.03 2.00L12.03 3.60L12.03 3.60Q12.03 3.63 12.00 3.63L12.00 3.63L9.15 3.63L9.15 5.74L11.70 5.74L11.70 5.76L11.70 5.76Q11.70 5.84 11.68 6.79L11.68 6.79L11.68 6.79Q11.66 6.79 11.66 6.80L11.66 6.80L11.77 6.80L11.77 7.29L9.56 7.29L9.56 9.29L8.97 9.29L8.97 9.49L9.56 9.49L9.56 10.10L12.07 10.10L12.07 10.32L11.87 10.32L11.87 11.52L8.87 11.52L8.87 11.73L7.45 11.73L7.45 8.24L7.24 8.24L7.24 7.01L5.68 7.01L5.68 6.80L7.24 6.80ZM8.05 6.80L7.25 6.80L7.25 7.01L8.05 7.01L8.05 6.80ZM12.80 7.49L12.80 1.96L16.15 1.96L16.15 1.96Q17.83 1.96 18.33 3.14L18.33 3.14L18.33 3.14Q18.54 3.75 18.54 4.53L18.54 4.53L18.54 4.94L18.54 4.94Q18.54 6.36 17.92 7.11L17.92 7.11L17.21 7.11L17.21 7.47L18.29 7.47L18.29 9.81L17.65 9.81L17.65 10.17L18.62 10.17L18.62 11.55L16.58 11.55L16.58 9.34L15.80 9.34L15.80 7.92L14.43 7.92L14.43 10.34L14.72 10.34L14.72 11.73L12.84 11.73L12.84 11.73Q12.80 11.73 12.80 11.70L12.80 11.70L12.80 7.77L13.64 7.77L13.64 7.49L12.80 7.49ZM15.53 3.55L14.72 3.55L14.72 6.31L15.19 6.31L15.19 6.31Q16.24 6.31 16.40 6.11L16.40 6.11L16.40 6.11Q16.57 6.00 16.67 5.67L16.67 5.67L17.39 5.67L17.39 5.32L16.73 5.32L16.73 5.35L16.73 5.35Q16.68 5.67 16.65 5.67L16.65 5.67L15.72 5.67L15.72 5.32L16.70 5.32L16.70 5.32Q16.73 5.32 16.73 5.29L16.73 5.29L16.73 5.29Q16.75 4.87 16.75 4.81L16.75 4.81L16.75 4.81Q16.75 3.90 16.43 3.69L16.43 3.69L16.43 3.69Q16.19 3.55 15.53 3.55L15.53 3.55ZM22.50 1.96L22.50 1.96L22.52 1.96L22.52 1.96Q24.71 1.96 25.19 3.38L25.19 3.38L25.19 3.38Q25.42 3.91 25.42 4.87L25.42 4.87L23.83 5.09L23.81 5.05L23.81 5.02L23.81 5.02Q23.81 3.86 23.03 3.64L23.03 3.64L23.03 3.64Q22.80 3.58 22.45 3.56L22.45 3.56L22.45 3.56Q21.61 3.56 21.36 4.47L21.36 4.47L21.36 4.47Q21.22 5.07 21.22 5.89L21.22 5.89L21.22 6.66L21.22 6.66Q21.22 7.99 21.25 8.67L21.25 8.67L21.66 8.67L21.66 10.03L23.60 10.03L23.60 7.70L22.37 7.70L22.37 6.45L26.07 6.45L26.07 6.72L25.58 6.72L25.58 8.16L24.59 8.16L24.59 8.62L25.07 8.62L25.07 11.39L19.79 11.39L19.79 9.91L19.19 9.91L19.19 9.78L19.45 9.78L19.45 9.64L19.79 9.64L19.79 9.08L18.87 9.08L18.87 7.90L19.30 7.90L19.30 7.90Q19.29 7.38 19.29 7.31L19.29 7.31L19.29 7.31Q19.29 4.20 19.63 3.56L19.63 3.56L19.63 3.56Q19.73 3.15 20.19 2.67L20.19 2.67L20.19 2.67Q20.88 1.96 22.50 1.96ZM21.15 11.73L21.15 11.54L23.16 11.54L23.16 11.73L21.15 11.73ZM26.69 1.93L26.69 1.93L28.53 1.93L28.53 1.93Q28.56 1.94 28.56 1.97L28.56 1.97L28.56 6.73L28.56 6.73Q28.56 6.76 28.53 6.76L28.53 6.76L28.31 6.76L28.31 11.70L28.31 11.70Q28.31 11.73 28.28 11.73L28.28 11.73L26.69 11.73L26.69 11.73Q26.65 11.73 26.65 11.70L26.65 11.70L26.65 6.64L26.16 6.64L26.16 6.64Q26.13 6.64 26.13 6.61L26.13 6.61L26.13 6.40L26.13 6.40Q26.13 6.36 26.16 6.36L26.16 6.36L26.65 6.36L26.65 1.97L26.65 1.97Q26.66 1.93 26.69 1.93ZM27.61 6.36L26.67 6.36L26.67 6.64L27.61 6.64L27.61 6.36ZM32.62 1.95L32.62 1.95L32.62 1.95Q34.73 1.95 35.39 3.42L35.39 3.42L35.39 3.42Q35.77 4.14 35.77 6.19L35.77 6.19L35.77 6.23L35.04 6.23L35.04 6.56L35.77 6.56L35.77 10.10L35.29 10.10L35.29 11.37L34.34 11.37L34.34 11.73L31.01 11.73L31.01 11.37L30.61 11.37L30.61 10.10L29.76 10.10L29.76 9.10L30.26 9.10L30.26 8.57L29.76 8.57L29.76 9.10L28.55 9.10L28.55 8.57L29.46 8.57L29.46 8.57Q29.45 7.38 29.45 6.74L29.45 6.74L29.45 5.91L29.45 5.91Q29.45 3.58 30.24 2.80L30.24 2.80L30.24 2.80Q30.95 1.95 32.62 1.95ZM31.42 5.32L31.42 5.32L31.45 5.32L31.42 5.35L31.42 6.23L30.69 6.23L30.69 6.56L31.42 6.56L31.42 6.56Q31.41 8.67 31.41 9.75L31.41 9.75L31.41 10.10L33.04 10.10L33.04 9.56L33.80 9.56L33.80 9.54L33.80 9.54Q33.80 8.54 33.78 6.75L33.78 6.75L33.78 6.75Q33.78 6.68 33.80 6.38L33.80 6.38L33.80 6.38Q33.80 4.45 33.57 4.01L33.57 4.01L33.57 4.01Q33.34 3.58 32.72 3.58L32.72 3.58L32.48 3.58L32.48 3.58Q31.73 3.58 31.55 4.24L31.55 4.24L31.55 4.24Q31.47 4.56 31.42 5.32ZM35.77 6.56L35.77 6.23L36.94 6.23L36.94 6.56L35.77 6.56ZM43.78 1.93L43.78 1.93L43.78 1.93Q45.83 1.93 46.36 3.22L46.36 3.22L46.36 3.22Q46.52 3.53 46.52 3.63L46.52 3.63L45.66 3.63L45.66 3.89L46.59 3.89L46.59 3.88L46.59 3.88Q46.59 3.81 46.52 3.63L46.52 3.63L48.10 3.63L48.10 3.89L46.60 3.89L46.60 3.91L46.60 3.91Q46.72 4.46 46.76 5.09L46.76 5.09L46.76 5.09Q46.76 5.13 44.97 5.22L44.97 5.22L44.97 5.21L44.97 5.21Q44.97 3.58 43.85 3.58L43.85 3.58L43.65 3.58L43.65 3.58Q42.81 3.58 42.63 4.29L42.63 4.29L42.63 4.29Q42.49 4.89 42.49 5.87L42.49 5.87L42.49 7.21L42.46 7.40L41.84 7.40L41.84 7.71L42.46 7.71L42.46 10.08L45.10 10.08L45.10 7.62L46.61 7.62L46.61 10.08L45.77 10.08L45.77 11.60L44.02 11.60L44.02 11.73L42.65 11.73L42.65 11.60L41.26 11.60L41.26 10.84L42.18 10.84L42.18 10.51L40.80 10.51L40.80 9.39L40.21 9.39L40.21 8.00L40.52 8.00L40.52 8.00Q40.50 7.16 40.50 6.66L40.50 6.66L40.50 6.66Q40.50 4.42 40.71 3.84L40.71 3.84L40.71 3.84Q40.93 3.17 41.38 2.69L41.38 2.69L41.38 2.69Q42.18 1.93 43.78 1.93ZM47.69 1.93L47.69 1.93L49.53 1.93L49.53 1.93Q49.56 1.94 49.56 1.97L49.56 1.97L49.56 6.73L49.56 6.73Q49.56 6.76 49.53 6.76L49.53 6.76L49.31 6.76L49.31 11.70L49.31 11.70Q49.31 11.73 49.28 11.73L49.28 11.73L47.69 11.73L47.69 11.73Q47.65 11.73 47.65 11.70L47.65 11.70L47.65 6.64L47.16 6.64L47.16 6.64Q47.13 6.64 47.13 6.61L47.13 6.61L47.13 6.40L47.13 6.40Q47.13 6.36 47.16 6.36L47.16 6.36L47.65 6.36L47.65 1.97L47.65 1.97Q47.66 1.93 47.69 1.93ZM48.61 6.36L47.67 6.36L47.67 6.64L48.61 6.64L48.61 6.36ZM49.86 7.25L49.86 1.90L52.40 1.90L52.40 1.90Q54.62 1.90 55.24 3.05L55.24 3.05L55.24 3.05Q55.60 3.77 55.60 4.89L55.60 4.89L55.60 4.89Q55.58 5.10 55.58 5.30L55.58 5.30L56.99 5.30L56.99 5.78L55.54 5.78L55.54 5.76L55.54 5.76Q55.57 5.33 55.57 5.30L55.57 5.30L54.75 5.30L54.75 5.78L55.54 5.78L55.54 7.44L53.92 7.44L53.92 8.02L53.90 8.02L53.90 8.02Q52.03 8.03 51.78 8.03L51.78 8.03L51.78 8.90L51.43 8.90L51.43 10.44L51.63 10.44L51.63 11.73L50.09 11.73L50.09 11.12L49.88 11.12L49.88 10.62L49.88 10.62Q49.88 9.74 49.86 7.76L49.86 7.76L50.79 7.76L50.79 7.25L49.86 7.25ZM52.61 3.57L51.78 3.57L51.78 6.36L52.36 6.36L52.36 5.96L53.53 5.96L53.53 5.96Q53.75 5.75 53.75 4.76L53.75 4.76L53.75 4.76Q53.75 3.83 53.33 3.68L53.33 3.68L53.33 3.68Q53.17 3.57 52.61 3.57L52.61 3.57ZM56.77 7.49L56.77 1.96L60.12 1.96L60.12 1.96Q61.80 1.96 62.29 3.14L62.29 3.14L62.29 3.14Q62.50 3.75 62.50 4.53L62.50 4.53L62.50 4.94L62.50 4.94Q62.50 6.36 61.88 7.11L61.88 7.11L61.17 7.11L61.17 7.47L62.25 7.47L62.25 9.81L61.61 9.81L61.61 10.17L62.58 10.17L62.58 11.55L60.55 11.55L60.55 9.34L59.76 9.34L59.76 7.92L58.39 7.92L58.39 10.34L58.69 10.34L58.69 11.73L56.80 11.73L56.80 11.73Q56.77 11.73 56.77 11.70L56.77 11.70L56.77 7.77L57.61 7.77L57.61 7.49L56.77 7.49ZM59.49 3.55L58.69 3.55L58.69 6.31L59.15 6.31L59.15 6.31Q60.20 6.31 60.36 6.11L60.36 6.11L60.36 6.11Q60.53 6.00 60.63 5.67L60.63 5.67L61.35 5.67L61.35 5.32L60.70 5.32L60.70 5.35L60.70 5.35Q60.64 5.67 60.61 5.67L60.61 5.67L59.68 5.67L59.68 5.32L60.66 5.32L60.66 5.32Q60.70 5.32 60.70 5.29L60.70 5.29L60.70 5.29Q60.71 4.87 60.71 4.81L60.71 4.81L60.71 4.81Q60.71 3.90 60.40 3.69L60.40 3.69L60.40 3.69Q60.15 3.55 59.49 3.55L59.49 3.55ZM63.39 1.93L63.39 1.93L65.24 1.93L65.24 1.93Q65.26 1.94 65.26 1.97L65.26 1.97L65.26 6.73L65.26 6.73Q65.26 6.76 65.24 6.76L65.24 6.76L65.02 6.76L65.02 11.70L65.02 11.70Q65.02 11.73 64.98 11.73L64.98 11.73L63.39 11.73L63.39 11.73Q63.36 11.73 63.36 11.70L63.36 11.70L63.36 6.64L62.86 6.64L62.86 6.64Q62.83 6.64 62.83 6.61L62.83 6.61L62.83 6.40L62.83 6.40Q62.84 6.36 62.86 6.36L62.86 6.36L63.36 6.36L63.36 1.97L63.36 1.97Q63.36 1.93 63.39 1.93ZM64.31 6.36L63.37 6.36L63.37 6.64L64.31 6.64L64.31 6.36ZM66.96 7.57L68.65 1.96L70.29 1.96L70.29 1.96Q70.33 2.10 71.89 7.29L71.89 7.29L72.19 7.29L72.19 10.51L71.52 10.51L71.52 10.76L72.19 10.76L72.19 11.45L70.38 11.45L70.38 9.47L68.15 9.47L68.15 10.32L67.25 10.32L67.25 11.73L65.60 11.73L65.60 11.63L65.73 11.63L65.73 10.32L66.40 10.32L66.40 7.57L66.96 7.57ZM69.45 4.71L69.42 4.71L69.42 4.72L69.42 4.72Q69.21 5.89 68.60 8.40L68.60 8.40L70.13 8.40L70.13 7.29L70 7.29L70 7.29Q69.45 4.92 69.45 4.71L69.45 4.71ZM65.12 7.57L65.12 7.28L66.40 7.28L66.40 7.57L65.12 7.57ZM70.38 11.73L70.38 11.57L72.57 11.57L72.57 11.73L70.38 11.73ZM72.57 1.96L72.57 1.96L74.57 1.96L74.57 1.96Q74.61 1.96 75.21 3.53L75.21 3.53L75.21 3.53Q75.26 3.59 76.47 6.62L76.47 6.62L76.98 6.62L76.98 1.96L78.72 1.96L78.72 7.51L78.92 7.51L78.92 9.67L78.22 9.67L78.22 10.08L78.92 10.08L78.92 11.37L76.30 11.37L76.30 9.73L75.84 9.73L75.84 9.73Q74.89 7.44 74.57 6.56L74.57 6.56L74.57 4.92L74.32 4.92L74.32 9.93L73.92 9.93L73.92 11.66L72.29 11.66L72.29 7.94L72.58 7.94L72.58 7.92L72.58 7.92Q72.57 3.09 72.57 1.96ZM76.43 6.62L75.51 6.62L75.51 6.98L76.60 6.98L76.60 6.98Q76.47 6.62 76.43 6.62L76.43 6.62ZM77.79 6.62L76.99 6.62L76.99 6.98L76.61 6.98L76.61 6.98Q76.96 7.85 77.03 8.11L77.03 8.11L77.04 8.11L77.04 8.07L77.04 8.07Q76.99 7.18 76.99 6.98L76.99 6.98L77.79 6.98L77.79 6.62ZM76.30 11.73L76.30 11.55L79.47 11.55L79.47 11.73L76.30 11.73ZM83.37 1.95L83.37 1.95L83.37 1.95Q85.48 1.95 86.14 3.42L86.14 3.42L86.14 3.42Q86.52 4.14 86.52 6.19L86.52 6.19L86.52 6.23L85.79 6.23L85.79 6.56L86.52 6.56L86.52 10.10L86.04 10.10L86.04 11.37L85.09 11.37L85.09 11.73L81.76 11.73L81.76 11.37L81.36 11.37L81.36 10.10L80.51 10.10L80.51 9.10L81.01 9.10L81.01 8.57L80.51 8.57L80.51 9.10L79.30 9.10L79.30 8.57L80.21 8.57L80.21 8.57Q80.20 7.38 80.20 6.74L80.20 6.74L80.20 5.91L80.20 5.91Q80.20 3.58 80.99 2.80L80.99 2.80L80.99 2.80Q81.70 1.95 83.37 1.95ZM82.17 5.32L82.17 5.32L82.20 5.32L82.17 5.35L82.17 6.23L81.44 6.23L81.44 6.56L82.17 6.56L82.17 6.56Q82.16 8.67 82.16 9.75L82.16 9.75L82.16 10.10L83.79 10.10L83.79 9.56L84.55 9.56L84.55 9.54L84.55 9.54Q84.55 8.54 84.53 6.75L84.53 6.75L84.53 6.75Q84.53 6.68 84.55 6.38L84.55 6.38L84.55 6.38Q84.55 4.45 84.32 4.01L84.32 4.01L84.32 4.01Q84.09 3.58 83.47 3.58L83.47 3.58L83.23 3.58L83.23 3.58Q82.48 3.58 82.30 4.24L82.30 4.24L82.30 4.24Q82.22 4.56 82.17 5.32ZM86.52 6.56L86.52 6.23L87.69 6.23L87.69 6.56L86.52 6.56Z"></path></g><!----><!----></svg>